<?xml version="1.0" encoding="UTF-8" standalone="no"?>
<svg
   xmlns:dc="http://purl.org/dc/elements/1.1/"
   xmlns:cc="http://creativecommons.org/ns#"
   xmlns:rdf="http://www.w3.org/1999/02/22-rdf-syntax-ns#"
   xmlns:svg="http://www.w3.org/2000/svg"
   xmlns="http://www.w3.org/2000/svg"
   xmlns:sodipodi="http://sodipodi.sourceforge.net/DTD/sodipodi-0.dtd"
   xmlns:inkscape="http://www.inkscape.org/namespaces/inkscape"
   width="210mm"
   height="30mm"
   viewBox="0 0 210 30"
   version="1.1"
   id="svg2171"
   inkscape:version="1.0.1 (c497b03c, 2020-09-10)"
   sodipodi:docname="extruders.svg"
   inkscape:export-filename="/Users/kuba/desktop/bitmapa.png"
   inkscape:export-xdpi="300"
   inkscape:export-ydpi="300">
  <defs
     id="defs2165" />
  <sodipodi:namedview
     id="base"
     pagecolor="#000000"
     bordercolor="#666666"
     borderopacity="1.0"
     inkscape:pageopacity="0"
     inkscape:pageshadow="2"
     inkscape:zoom="0.41313061"
     inkscape:cx="479.73385"
     inkscape:cy="-22.782688"
     inkscape:document-units="mm"
     inkscape:current-layer="layer1"
     inkscape:document-rotation="0"
     showgrid="false"
     inkscape:window-width="1380"
     inkscape:window-height="791"
     inkscape:window-x="0"
     inkscape:window-y="25"
     inkscape:window-maximized="0" />
  <metadata
     id="metadata2168">
    <rdf:RDF>
      <cc:Work
         rdf:about="">
        <dc:format>image/svg+xml</dc:format>
        <dc:type
           rdf:resource="http://purl.org/dc/dcmitype/StillImage" />
        <dc:title></dc:title>
      </cc:Work>
    </rdf:RDF>
  </metadata>
  <g
     inkscape:label="Vrstva 1"
     inkscape:groupmode="layer"
     id="layer1">
    <g
       id="g2112"
       transform="matrix(0.50404472,0,0,0.50404472,-195.86654,17.747772)">
      <path
         style="fill:#b5b6b5;stroke-width:0.264583"
         d="m 717.8935,-4.818486 h -0.47967 l -0.71096,-0.74208 -0.71096,-0.74208 v -3.22667 -3.226664 h 1.19063 1.19062 v 3.968744 3.96875 z m 18.33903,0 h -10.18646 v -3.96875 -3.968744 h 1.83157 1.83156 l 0.29292,0.887551 0.29292,0.887535 0.92504,1.080711 0.92504,1.080696 1.44446,0.7067 1.44443,0.706711 1.92218,-0.106307 1.92218,-0.106312 0.97353,-0.473268 0.97351,-0.473274 0.98068,-0.95241 0.98065,-0.952405 0.53212,-1.202939 0.53213,-1.202929 -0.004,-1.725964 -0.004,-1.72597 -0.40653,-0.962966 -0.40653,-0.962972 -1.0179,-1.129072 -1.0179,-1.129067 -1.32291,-0.617348 -1.32292,-0.617359 -1.45521,-10e-4 -1.45521,-0.001 -0.97984,0.27214 -0.97986,0.27214 -1.28159,1.013017 -1.28157,1.013039 -0.64529,1.359181 -0.64531,1.359198 h -1.92152 -1.92191 l -0.0157,-1.124479 -0.0157,-1.12448 0.005,-6.217708 0.005,-6.217708 0.0105,-0.859898 0.0106,-0.859998 h 10.31875 10.31875 v 14.022712 14.022917 z m 25.87967,0 h -1.14113 l -0.004,-0.529157 -0.004,-0.529172 v -7.408338 -7.408327 l 0.004,-6.085417 0.004,-6.085413 h 1.11001 1.11 l 0.74208,0.710958 0.74208,0.710957 v 12.569874 12.569875 l -0.71095,0.74208 -0.71097,0.74208 z m -44.86352,-11.672964 -1.25677,0.03128 v -7.491113 -7.491122 l 0.74016,-0.709115 0.74016,-0.709115 1.97182,0.228414 1.97183,0.228408 -1.38907,0.03433 -1.38906,0.03433 v 0.37747 0.377476 l 0.46302,0.120999 0.46302,0.121005 -0.46302,0.03071 -0.46302,0.03071 v 0.51395 0.513949 l 1.12448,0.101278 1.12448,0.101289 -1.09329,0.04619 -1.09329,0.0463 -0.0144,1.044518 -0.0144,1.044523 1.24,0.0984 1.23999,0.0984 -1.25677,0.04772 -1.25676,0.04772 v 1.04077 1.040754 l 0.7276,0.110218 0.72761,0.110228 -0.72761,0.03958 -0.7276,0.03958 v 0.514674 0.514679 l 1.25677,0.0991 1.25677,0.0991 -1.25677,0.04772 -1.25677,0.04771 v 0.374819 0.37483 l 0.33073,0.133451 0.33073,0.13345 -0.33073,0.02089 -0.33073,0.02089 v 0.51396 0.513939 l 1.12448,0.101283 1.12448,0.101289 -1.09329,0.04619 -1.09329,0.0463 -0.0144,1.043935 -0.0144,1.04393 1.1077,0.10047 1.1077,0.100459 -1.12449,0.04619 -1.12446,0.0463 v 1.058329 1.058329 l 0.72761,0.03128 0.72761,0.03128 -0.79376,0.201979 -0.79375,0.201974 z m 18.71927,-21.399943 h -9.12813 v -1.190625 -1.190629 h 5.82085 5.82082 v -1.852082 -1.852082 h -5.68853 -5.68855 v -1.190624 -1.190625 h 5.95312 5.95313 v -1.719791 -1.719796 h -5.95313 -5.95312 v -1.322915 -1.322915 h 6.21771 6.21771 v -1.719791 -1.719792 h -6.21771 -6.21771 v -1.190629 -1.190625 h 6.35 6.35 v -1.852082 -1.852081 h -6.35 -6.35 v -1.190625 -1.190624 h 6.61458 6.61458 v -1.852087 -1.852082 h -6.61458 -6.61458 v -1.190624 -1.190625 h 6.87917 6.87917 v -1.852087 -1.852081 h -6.87917 -6.87917 v -1.190625 -1.190624 h 7.01147 7.01145 v -1.852082 -1.852087 h -7.01145 -7.01147 v -1.190624 -1.190625 h 7.27604 7.27604 v -1.852082 -1.852087 h -7.27604 -7.27604 v -1.190624 -1.190624 h 7.54062 7.54064 v -1.852082 -1.852082 h -7.54064 -7.54062 v -1.190624 -1.19063 h 7.67291 7.67293 v -1.719791 -1.719791 h -7.67293 -7.67291 v -1.322915 -1.322919 h 7.9375 7.9375 v -1.71979 -1.71979 h -4.36563 -4.36561 v -1.19063 -1.19062 h 4.36561 4.36563 v -1.85209 -1.85208 h -4.36563 -4.36561 v -3.70417 -3.70416 h 2.38125 2.38124 v -7.14375 -7.14375 h -2.38124 -2.38125 v -4.49792 -4.49792 l 4.96092,-1.9e-4 4.96094,-2e-4 -0.0835,7.88659 -0.0835,7.88659 0.96006,-0.11208 0.96007,-0.11208 0.12931,0.49392 0.1293,0.49391 0.90863,0.59532 0.90861,0.59531 h 0.26829 0.26831 v 24.174211 24.17422 l -1.05835,0.70037 -1.05833,0.700375 v 5.155621 5.155616 h -0.66145 -0.66147 v 12.700002 12.700002 z m 35.32187,0 h -9.26041 v -12.700002 -12.700002 h -0.52917 -0.52917 v -5.135081 -5.135076 l -1.19015,-0.751901 -1.19014,-0.751901 -0.0363,-23.547912 -0.0363,-23.547922 -0.0468,-1.12448 -0.0468,-1.12448 h 0.71176 0.71177 l 0.9571,-0.3999 0.95708,-0.39989 0.13474,0.008 0.13476,0.008 0.66026,-0.16572 0.66026,-0.16572 v -7.77652 -7.77653 h 4.76251 4.76249 v 4.49792 4.49792 h -2.38124 -2.38125 v 7.14375 7.14375 h 2.38125 2.38124 v 3.70416 3.70417 h -4.36562 -4.36562 v 1.85208 1.85208 h 4.36562 4.36562 v 1.19063 1.19063 h -4.36562 -4.36562 v 1.71979 1.71979 h 8.06979 8.0698 v 1.322916 1.322915 h -7.80522 -7.80521 v 1.719791 1.719797 h 7.80521 7.80522 v 1.190624 1.190624 h -7.54066 -7.54062 v 1.852082 1.852082 h 7.54062 7.54065 v 1.190624 1.19063 h -7.27607 -7.27603 v 1.852082 1.852082 h 7.27603 7.27607 v 1.190624 1.190624 h -7.14377 -7.14375 v 1.85202 1.852082 h 7.14375 7.14377 v 1.190624 1.190625 h -6.87917 -6.87919 v 1.852081 1.852087 h 6.87919 6.87917 v 1.190625 1.190624 h -6.61461 -6.61458 v 1.852082 1.852087 h 6.61458 6.6146 v 1.190624 1.190625 h -6.48231 -6.48229 v 1.852081 1.852082 h 6.48229 6.48231 v 1.190625 1.190629 h -6.21773 -6.21771 v 1.719792 1.719791 h 6.21771 6.21773 v 1.322915 1.322915 h -5.95315 -5.95311 v 1.719796 1.719791 h 5.95311 5.95315 v 1.190625 1.190624 h -5.82086 -5.82082 v 1.852082 1.852082 h 5.95311 5.95314 v 1.190629 1.190625 z m -20.04218,-25.399989 -0.19844,1.6e-5 0.0663,-31.551577 0.0663,-31.551577 0.0679,-17.72709 0.0679,-17.72708 0.0642,49.27865 0.0643,49.278643 z"
         id="path889-6-6-9"
         sodipodi:nodetypes="ccccccccccccccccccccccccccccccccccccccccccccccccccccccccccccccccccccccccccccccccccccccccccccccccccccccccccccccccccccccccccccccccccccccccccccccccccccccccccccccccccccccccccccccccccccccccccccccccccccccccccccccccccccccccccccccccccccccccccccccccccccccccccccccccccccccccccccccccccccccccccccccccccccccccccccccccccccccccccccccccccccccccccccccccccccccccccccccccccccccccccccccccccccccccccccccccccccccccccccccccccccccccccccccc" />
      <path
         style="fill:#accaa9;stroke-width:0.264583"
         d="m 750.0816,-63.343034 -0.96762,0.08065 -0.15351,-0.248419 -0.15354,-0.248413 -0.007,-29.465575 -0.007,-29.465569 0.003,-19.51302 0.003,-19.51302 h 1.19133 1.19133 l -0.0672,49.14636 -0.0668,49.146353 z m 7.2294,0.05165 h -1.01423 l -0.17638,-0.176394 -0.17639,-0.176384 v -49.036128 -49.03611 h 1.19063 1.19062 v 49.2125 49.212506 z"
         id="path887-3-4-8" />
      <path
         style="fill:#85817e;stroke-width:0.264583"
         d="m 719.29921,-4.818486 h -0.92605 v -3.96875 -3.968744 h 1.01927 1.01927 l -0.0763,3.505727 -0.0763,3.505728 -0.017,0.463022 -0.0169,0.463017 z m 5.42395,0 h -1.32292 l -0.0226,-0.198436 -0.0226,-0.19843 -0.048,-3.770325 -0.048,-3.770303 h 1.39348 1.39349 v 3.968744 3.96875 h -1.32292 z m 36.11378,-15.345827 h -0.0992 l -0.16352,-0.264581 -0.16351,-0.264586 h -2.08543 -2.08545 l -0.14727,-0.238266 -0.14726,-0.238272 -0.008,-20.015739 -0.008,-20.015738 0.18053,-0.292082 0.18052,-0.292081 -0.30548,0.188788 -0.30545,0.188787 0.0654,-50.220297 0.0653,-50.22031 0.0675,49.27865 0.0675,49.278643 h 1.27253 1.27254 l -0.0351,-29.434894 -0.0351,-29.434899 0.0863,23.547922 0.0863,23.547912 1.18906,0.751901 1.18906,0.751901 v 5.135076 5.135081 h 0.52916 0.52917 v 12.700002 12.700002 h -2.51351 -2.51355 v 2.513539 2.513544 h 1.9924 1.9924 l -0.0255,6.349999 -0.0255,6.349998 h -0.0992 z m -9.87177,-0.529167 -0.18055,0.132296 -1.5875,-0.0681 -1.58749,-0.0681 -0.59533,-0.135377 -0.5953,-0.135372 v -5.948098 -5.948083 h 1.98437 1.98438 v -2.513544 -2.513539 h -2.64583 -2.64584 v -12.699998 -12.700002 h 0.66145 0.66147 v -5.155616 -5.155621 l 1.05692,-0.699446 1.05693,-0.699435 0.069,-23.712128 0.069,-23.712127 0.0647,29.683863 0.0647,29.683868 0.30547,0.188783 0.30546,0.188787 -0.18878,-0.305461 -0.1888,-0.305467 h 1.20624 1.20624 v 0.785448 0.785444 l -0.46302,-0.159581 -0.46301,-0.159586 0.50379,0.392593 0.50381,0.392593 -0.19096,20.214358 -0.19094,20.214358 z m -2.29722,-102.12917 h -0.13229 v -0.26458 -0.26458 h -0.2683 -0.26829 l -0.90862,-0.59531 -0.90862,-0.59532 -0.12123,-0.46302 -0.12123,-0.46302 h -0.95082 -0.95081 v -3.65988 -3.65988 l 1.38906,0.19542 1.38907,0.19542 0.42283,0.17005 0.42281,0.17005 -0.27302,1.02289 -0.27302,1.02289 0.32385,1.0809 0.32383,1.08089 h 0.51854 0.51855 v 2.51354 2.51354 z m 10.41873,-1.5875 h -0.76143 v -0.52916 -0.52917 h 2.08835 2.08836 l 0.1606,-0.41851 0.1606,-0.41852 v -3.13774 -3.13775 l 0.26458,-0.16352 0.26458,-0.16352 v 3.69109 3.6911 l -0.66026,0.16572 -0.66027,0.16572 -0.19963,0.0193 -0.19963,0.0193 -0.8922,0.37279 -0.89221,0.37278 h -0.76144 z"
         id="path885-1-3-8"
         sodipodi:nodetypes="ccccccccccccccccccccccccccccccccccccccccccccccccccccccccccccccccccccccccccccccccccccccccccccccccccccccccccccccccccccccccccccccccccccccccccccccccccccccccccc" />
      <path
         style="fill:#f9f9f9;fill-opacity:1;stroke-width:0.264583"
         d="m 695.43149,9.9939214 c 8.82393,1.1194916 56.33005,0.1489196 56.33005,0.1489196 l 1.53634,-0.409228 2.8e-4,-0.739319 V 7.681731 L 752.90129,7.352354 752.50441,7.022972 V 6.337704 5.652431 l -0.66209,-0.539109 -0.66212,-0.539099 0.0369,-12.567706 0.0369,-12.567701 0.11889,-70.577606 0.1189,-70.5776 h 2.0529 2.05291 l 0.15707,83.277597 0.15709,83.277597 -0.51306,0.363009 -0.51306,0.362998 v 0.865463 0.865457 l -0.38179,0.146521 -0.38181,0.1465 -0.0812,1.250182 0.0511,0.894658 c 0,0 0.28642,1.583225 -0.21567,2.320263 -0.50208,0.737038 -3.9069,0.681762 -5.22069,0.297767 -2.25894,-0.660244 -2.32594,-0.990219 -5.67851,-1.418115 -3.35257,-0.427896 -31.39536,0.03256 -31.39536,0.03256 l -14.46861,0.794499 -3.16645,0.619102 -17.00291,0.0592 c -1.8668,0.0065 -1.68334,-2.5733796 0.0598,-3.4639596 0,0 9.60403,-0.100491 18.42796,1.018986 z"
         id="path883-2-6-0"
         sodipodi:nodetypes="zccccccccccccccccccccccccccsszcccsszz" />
      <path
         style="fill:#915e1c;stroke-width:0.264583"
         d="m 752.94321,9.733592 h -0.35496 l -1.76249,-2.503618 -1.7625,-2.503623 -2.44662,-0.0761 -2.44661,-0.0761 V 1.134562 -2.305015 l 1.78594,-0.0782 1.78595,-0.0782 v -1.834958 -1.834949 l -0.66147,-0.166022 -0.66145,-0.166011 v -6.818086 -6.81809 l 0.37526,-0.311441 0.37527,-0.311451 1.99621,0.0528 1.99618,0.0528 0.009,12.595474 0.009,12.595491 0.66209,0.539109 0.66212,0.539098 V 6.337622 7.02289 l 0.39686,0.329377 0.39688,0.329382 V 8.70758 9.733521 h -0.35496 z m 1.47944,-0.0031 -0.33074,0.0031 V 8.666964 7.600321 l 0.39688,-0.15229 0.39687,-0.1523 V 6.407303 5.518891 l 0.52916,-0.28321 0.52918,-0.2832 V -7.870494 -20.69348 h 2.19603 2.19604 l 0.31751,0.317498 0.31749,0.317498 v 6.663534 6.663528 l -0.66145,0.433395 -0.66145,0.433411 v 1.713692 1.713697 h 1.85207 1.85208 v 3.571868 3.571873 l -2.57968,0.008 -2.57969,0.008 -1.71979,2.503031 -1.71979,2.50303 -0.33072,0.0031 z m -8.70368,-142.637892 -1.68123,0.0365 v -3.40709 -3.40709 l 0.54838,-0.69714 0.54836,-0.69714 h 0.58934 0.58934 l 0.35631,0.33073 0.35632,0.33073 -0.18672,-0.33073 -0.18673,-0.33073 0.21406,0.004 0.21405,0.004 0.34164,0.21675 0.34165,0.21675 -0.18177,3.84697 -0.18177,3.84697 -1.68123,0.0365 z m 15.75779,-2.2e-4 -1.87559,-0.0285 0.26876,-0.26875 0.26875,-0.26875 -0.21002,-0.56172 -0.21005,-0.56172 -0.19211,-3.01189 -0.19211,-3.0119 0.35532,-0.2252 0.35533,-0.22519 1.07836,-0.004 1.07837,-0.004 0.57527,0.61236 0.57528,0.61237 v 3.4878 3.4878 l -1.87556,-0.0285 z"
         id="path881-8-8-6" />
      <path
         style="fill:#585858;stroke-width:0.264583"
         d="m 760.43687,-125.46848 h -2.11162 v -1.19062 -1.19063 h 0.63059 0.63061 l 0.15953,-0.59531 0.15953,-0.59531 0.004,-1.10726 0.004,-1.10725 -0.25804,-0.67869 -0.25803,-0.67868 0.85335,-0.003 0.85335,-0.003 0.92603,-0.15379 0.92605,-0.15379 -0.0691,3.13327 -0.0691,3.13326 -0.13436,0.59531 -0.13436,0.59532 h -2.11163 z"
         id="path879-6-7-4"
         sodipodi:nodetypes="cccccccccccccccccccccc" />
      <path
         style="fill:#282828;stroke-width:0.264583"
         d="m 748.29159,-127.84973 h -0.50865 l -0.31506,-0.95468 -0.31508,-0.95468 0.15196,-0.83126 0.15197,-0.83125 0.17345,-0.59532 0.17345,-0.59531 h -1.1333 -1.13327 l 0.17519,-0.17521 0.17521,-0.1752 0.92723,0.0349 0.92723,0.0349 v -4.09299 -4.09298 h -1.32292 -1.32292 v -1.45521 -1.45521 h 1.85208 1.85208 v 8.06979 8.06979 z m 10.66425,0 h -0.63059 v -8.06979 -8.06979 h 1.85207 1.85209 v 1.4552 1.45521 h -1.32292 -1.32292 v 3.3073 3.30729 h 0.23374 0.23372 l 0.13854,0.52979 0.13856,0.52979 -0.43843,0.2563 -0.43842,0.25629 1.12519,-0.0357 1.12516,-0.0357 0.1757,0.17569 0.1757,0.1757 h -1.22819 -1.22815 l 0.25803,0.67868 0.25803,0.67868 -0.004,1.10726 -0.004,1.10725 -0.15955,0.59532 -0.15954,0.59531 h -0.63058 z"
         id="path875-7-4-8"
         sodipodi:nodetypes="ccccccccccccccccccccccccccccccccccccccccccccccccccccccccc" />
    </g>
    <path
       style="fill:#7db5d1;fill-opacity:1;fill-rule:evenodd;stroke-width:2.17008;stroke-linecap:round;stroke-linejoin:round"
       d="m -112.08008,23.988331 h 319.41015 v 1.642416 h -319.41015 z"
       id="rect848" />
    <g
       id="g2121"
       transform="matrix(0.50404472,0,0,0.50404472,-105.9082,-15.060559)">
      <path
         style="fill:#b5b6b5;stroke-width:0.264583"
         d="m 279.75341,57.04523 h -0.47967 l -0.71096,-0.742085 -0.71096,-0.74208 v -3.22667 -3.22667 h 1.19063 1.19062 v 3.96875 3.968755 z m 18.33903,0 h -10.18646 v -3.968755 -3.96875 h 1.83157 1.83156 l 0.29292,0.887551 0.29292,0.887541 0.92504,1.080706 0.92504,1.080701 1.44445,0.7067 1.44444,0.706706 1.92218,-0.106312 1.92218,-0.106307 0.97352,-0.473263 0.97352,-0.473269 0.98067,-0.95241 0.98066,-0.952415 0.53212,-1.202934 0.53212,-1.202939 -0.004,-1.725959 -0.004,-1.72597 -0.40653,-0.962966 -0.40652,-0.962972 -1.0179,-1.129067 -1.0179,-1.129072 -1.32291,-0.617354 -1.32292,-0.617359 -1.45521,-10e-4 -1.45521,-10e-4 -0.97985,0.27214 -0.97986,0.272139 -1.28158,1.013028 -1.28157,1.013034 -0.6453,1.359186 -0.6453,1.359192 h -1.92192 -1.92191 l -0.0157,-1.124479 -0.0157,-1.124479 0.005,-6.217708 0.005,-6.217708 0.0105,-0.859898 0.0106,-0.859998 h 10.31875 10.31875 v 14.022818 14.022917 z m 25.87967,0 h -1.14113 l -0.004,-0.529167 -0.004,-0.529167 v -7.408338 -7.408332 l 0.004,-6.085418 0.004,-6.085412 h 1.11 1.11001 l 0.74208,0.710957 0.74208,0.710958 v 12.569874 12.56988 l -0.71096,0.74208 -0.71096,0.742085 z m -44.86352,-11.672975 -1.25677,0.03129 v -7.491123 -7.491123 l 0.74016,-0.709115 0.74016,-0.709115 1.97182,0.228414 1.97183,0.228409 -1.38907,0.03433 -1.38906,0.03433 v 0.377471 0.377475 l 0.46302,0.120999 0.46302,0.121005 -0.46302,0.03071 -0.46302,0.03071 v 0.513949 0.513955 l 1.12448,0.101278 1.12448,0.101284 -1.09329,0.04624 -1.09329,0.04625 -0.0144,1.044523 -0.0144,1.044523 1.24,0.09841 1.23999,0.09841 -1.25677,0.04766 -1.25676,0.04772 v 1.04076 1.040759 l 0.7276,0.110223 0.72761,0.110223 -0.72761,0.03963 -0.7276,0.03963 v 0.514668 0.514674 l 1.25677,0.0991 1.25677,0.0991 -1.25677,0.04766 -1.25677,0.04766 v 0.374825 0.37483 l 0.33073,0.13345 0.33073,0.133451 -0.33073,0.02089 -0.33073,0.02089 v 0.513954 0.51395 l 1.12448,0.101278 1.12448,0.101283 -1.09329,0.04625 -1.09329,0.04625 -0.0144,1.043941 -0.0144,1.043935 1.1077,0.100465 1.1077,0.100459 -1.12449,0.04625 -1.12445,0.04624 v 1.058334 1.058334 l 0.7276,0.03129 0.72761,0.03128 -0.79375,0.201974 -0.79375,0.201974 z m 18.71927,-21.399942 h -9.12813 v -1.190625 -1.190629 h 5.82084 5.82083 v -1.852082 -1.852082 h -5.68854 -5.68854 v -1.190624 -1.190625 h 5.95312 5.95313 v -1.719791 -1.719797 h -5.95313 -5.95312 V 10.743143 9.4202292 h 6.21771 6.2177 v -1.719792 -1.719791 h -6.2177 -6.21771 v -1.19063 -1.190624 h 6.35 6.35 v -1.852082 -1.85208199 h -6.35 -6.35 v -1.19062401 -1.190624 h 6.61458 6.61458 v -1.852087 -1.852082 h -6.61458 -6.61458 v -1.1906245 -1.1906243 h 6.87916 6.87917 v -1.8520874 -1.852081 h -6.87917 -6.87916 v -1.190625 -1.190624 h 7.01146 7.01145 v -1.852082 -1.852087 h -7.01145 -7.01146 v -1.190624 -1.190625 h 7.27604 7.27604 v -1.852081 -1.852087 h -7.27604 -7.27604 v -1.190625 -1.190624 h 7.54062 7.54063 v -1.852082 -1.852082 h -7.54063 -7.54062 v -1.190624 -1.19063 h 7.67291 7.67292 v -1.719791 -1.719792 h -7.67292 -7.67291 v -1.322915 -1.322914 h 7.9375 7.9375 v -1.719792 -1.719796 h -4.36563 -4.36562 v -1.190625 -1.190624 h 4.36562 4.36563 v -1.852082 -1.852083 h -4.36563 -4.36562 v -3.704167 -3.704167 h 2.38125 2.38125 v -7.143749 -7.14375 h -2.38125 -2.38125 v -4.497917 -4.497917 l 4.96093,-1.96e-4 4.96094,-1.98e-4 -0.0835,7.886592 -0.0835,7.886591 0.96006,-0.112083 0.96006,-0.11208 0.12931,0.493916 0.12931,0.493917 0.90862,0.595312 0.90862,0.595312 h 0.26829 0.2683 v 24.174213 24.17422 l -1.05834,0.70037 -1.05833,0.700375 v 5.1556212 5.155615 h -0.66146 -0.66146 V 11.27231 23.972313 Z m 35.32187,0 h -9.26041 V 11.27231 -1.4276918 h -0.52917 -0.52917 v -5.13508 -5.1350762 l -1.19015,-0.751901 -1.19015,-0.751901 -0.0363,-23.547912 -0.0363,-23.547918 -0.0468,-1.12448 -0.0468,-1.12448 h 0.71177 0.71177 l 0.95709,-0.399899 0.95709,-0.399895 0.13474,0.0078 0.13475,0.0078 0.66027,-0.165719 0.66026,-0.165717 v -7.776526 -7.776524 h 4.7625 4.7625 v 4.497916 4.497917 h -2.38125 -2.38125 v 7.143751 7.14375 h 2.38125 2.38125 v 3.704166 3.704167 h -4.36562 -4.36563 v 1.852082 1.852082 h 4.36563 4.36562 v 1.190625 1.190629 h -4.36562 -4.36563 v 1.719792 1.719791 h 8.06979 8.0698 v 1.322915 1.322915 h -7.80521 -7.80521 v 1.719791 1.719796 h 7.80521 7.80521 v 1.190625 1.190624 h -7.54064 -7.54062 v 1.852082 1.852082 h 7.54062 7.54064 v 1.190624 1.19063 h -7.27606 -7.27604 v 1.852082 1.852082 h 7.27604 7.27606 v 1.190624 1.190624 h -7.14376 -7.14375 v 1.852019 1.852082 h 7.14375 7.14376 v 1.190624 1.190625 h -6.87917 -6.87918 v 1.852081 1.8520874 h 6.87918 6.87917 v 1.1906243 1.1906245 h -6.6146 -6.61458 v 1.852082 1.852087 h 6.61458 6.6146 v 1.190624 1.19062401 h -6.48231 -6.48229 v 1.85208199 1.852082 h 6.48229 6.48231 v 1.190624 1.19063 h -6.21772 -6.21771 v 1.719791 1.719792 h 6.21771 6.21772 v 1.3229138 1.322915 h -5.95314 -5.95312 v 1.719797 1.719791 h 5.95312 5.95314 v 1.190625 1.190624 h -5.82085 -5.82083 v 1.852082 1.852082 h 5.95312 5.95313 v 1.190629 1.190625 z m -20.04218,-25.3999888 -0.19844,1.6e-5 0.0663,-31.5515772 0.0663,-31.551577 0.0679,-17.727084 0.0679,-17.727083 0.0642,49.278646 0.0643,49.2786432 z"
         id="path889-6"
         sodipodi:nodetypes="ccccccccccccccccccccccccccccccccccccccccccccccccccccccccccccccccccccccccccccccccccccccccccccccccccccccccccccccccccccccccccccccccccccccccccccccccccccccccccccccccccccccccccccccccccccccccccccccccccccccccccccccccccccccccccccccccccccccccccccccccccccccccccccccccccccccccccccccccccccccccccccccccccccccccccccccccccccccccccccccccccccccccccccccccccccccccccccccccccccccccccccccccccccccccccccccccccccccccccccccccccccccccccccccc" />
      <path
         style="fill:#accaa9;stroke-width:0.264583"
         d="m 311.9415,-1.4793278 -0.96761,0.08065 -0.15352,-0.248414 -0.15353,-0.248413 -0.007,-29.4655752 -0.007,-29.465567 0.003,-19.513022 0.003,-19.51302 h 1.19132 1.19133 l -0.0672,49.146354 -0.0668,49.1463542 z m 7.22941,0.05165 h -1.01423 l -0.17639,-0.176394 -0.17639,-0.176384 V -50.81658 -99.85269 h 1.19063 1.19062 v 49.2125 49.2125022 z"
         id="path887-3" />
      <path
         style="fill:#85817e;stroke-width:0.264583"
         d="m 281.15912,57.04523 h -0.92605 v -3.968755 -3.96875 h 1.01927 1.01927 l -0.0763,3.505733 -0.0763,3.505728 -0.017,0.463022 -0.0169,0.463022 z m 5.42395,0 h -1.32292 l -0.0226,-0.198441 -0.0226,-0.198436 -0.048,-3.770314 -0.048,-3.770314 h 1.39348 1.39349 v 3.96875 3.968755 H 286.583 Z m 36.11377,-15.345837 h -0.0992 l -0.16352,-0.264581 -0.16352,-0.264586 h -2.08543 -2.08545 l -0.14726,-0.238272 -0.14726,-0.238272 -0.008,-20.015733 -0.008,-20.01573779 0.18053,-0.292082 0.18052,-0.292081 -0.30548,0.188787 -0.30545,0.188788 0.0654,-50.22030021 0.0653,-50.220304 0.0675,49.278646 0.0675,49.2786432 h 1.27253 1.27253 l -0.0351,-29.4348932 -0.0351,-29.434895 0.0863,23.547918 0.0863,23.547912 1.18906,0.751901 1.18906,0.751901 v 5.1350762 5.13508 h 0.52917 0.52917 V 11.27231 23.972313 h -2.51351 -2.51355 v 2.513539 2.513544 h 1.9924 1.9924 l -0.0255,6.349999 -0.0255,6.349998 h -0.0992 z m -9.87176,-0.529167 -0.18055,0.132296 -1.5875,-0.0681 -1.5875,-0.0681 -0.59532,-0.135377 -0.59531,-0.135372 v -5.948094 -5.948083 h 1.98438 1.98437 v -2.513544 -2.513539 h -2.64583 -2.64584 V 11.27231 -1.4276918 h 0.66146 0.66146 v -5.155615 -5.1556212 l 1.05693,-0.699446 1.05692,-0.699435 0.069,-23.712128 0.069,-23.712127 0.0647,29.683862 0.0647,29.6838692 0.30546,0.188782 0.30547,0.18878801 -0.18879,-0.30546201 -0.18879,-0.305467 h 1.20624 1.20624 v 0.78544901 0.785444 l -0.46302,-0.159581 -0.46302,-0.159587 0.5038,0.392594 0.5038,0.392593 -0.19096,20.21435779 -0.19094,20.214358 z m -2.29722,-102.129165 h -0.13229 v -0.264584 -0.264583 h -0.2683 -0.26829 l -0.90862,-0.595312 -0.90862,-0.595312 -0.12123,-0.463021 -0.12124,-0.463021 h -0.95081 -0.95081 v -3.659882 -3.659879 l 1.38906,0.195421 1.38907,0.195421 0.42282,0.17005 0.42282,0.17005 -0.27302,1.022891 -0.27303,1.022891 0.32385,1.080894 0.32384,1.080893 h 0.51854 0.51855 v 2.513542 2.513541 z m 10.41873,-1.587501 h -0.76144 v -0.529165 -0.529167 h 2.08836 2.08836 l 0.1606,-0.418515 0.1606,-0.418513 v -3.137748 -3.137746 l 0.26458,-0.16352 0.26458,-0.16352 v 3.691095 3.6911 l -0.66026,0.165716 -0.66027,0.165719 -0.19963,0.01934 -0.19963,0.01934 -0.89221,0.37279 -0.8922,0.372786 h -0.76144 z"
         id="path885-1"
         sodipodi:nodetypes="ccccccccccccccccccccccccccccccccccccccccccccccccccccccccccccccccccccccccccccccccccccccccccccccccccccccccccccccccccccccccccccccccccccccccccccccccccccccccccc" />
      <path
         style="fill:#f9f9f9;fill-opacity:1;stroke-width:0.264583"
         d="m 266.73996,75.482055 c 8.82393,1.119482 46.88148,-3.475503 46.88148,-3.475503 l 1.53635,-0.409233 2.8e-4,-0.739314 v -1.312568 l -0.39688,-0.329377 -0.39687,-0.329377 v -0.685268 -0.685268 l -0.6621,-0.539109 -0.66211,-0.539104 0.0369,-12.567706 0.0369,-12.567706 0.11889,-70.577606 0.1189,-70.577605 h 2.0529 2.05291 l 0.15708,83.277602 0.15708,83.277607 -0.51305,0.362999 -0.51306,0.363003 v 0.865463 0.865462 l -0.3818,0.146511 -0.38181,0.14651 -0.0812,1.250177 0.0511,0.894663 -0.65941,0.654692 -5.24591,0.539114 -14.12364,2.38875 -27.50131,2.068831 -3.16645,0.619096 -17.00291,0.05924 c -1.86679,0.0065 -1.68334,-2.573375 0.0598,-3.46396 0,0 9.60403,-0.100491 18.42796,1.018991 z"
         id="path883-2"
         sodipodi:nodetypes="zcccccccccccccccccccccccccccccccsszz" />
      <path
         style="fill:#915e1c;stroke-width:0.264583"
         d="m 314.80311,71.597308 h -0.35495 l -1.7625,-2.503623 -1.7625,-2.503623 -2.44661,-0.07606 -2.44661,-0.07606 v -3.439593 -3.439583 l 1.78594,-0.07823 1.78594,-0.07823 v -1.834954 -1.834953 l -0.66146,-0.166017 -0.66146,-0.166011 v -6.818086 -6.818091 l 0.37527,-0.311445 0.37527,-0.311451 1.9962,0.05284 1.99619,0.05283 0.009,12.595485 0.009,12.595491 0.6621,0.539104 0.66211,0.539103 v 0.685273 0.685268 l 0.39687,0.329377 0.39688,0.329377 v 1.025936 1.025936 h -0.35496 z m 1.47944,-0.0026 -0.33073,0.0026 v -1.066633 -1.066638 l 0.39687,-0.152295 0.39688,-0.152295 v -0.888428 -0.888422 l 0.52916,-0.283205 0.52917,-0.2832 V 53.993212 41.170226 h 2.19604 2.19604 l 0.3175,0.317503 0.3175,0.317498 v 6.663528 6.663529 l -0.66145,0.433405 -0.66146,0.433406 v 1.713692 1.713692 h 1.85208 1.85208 v 3.571873 3.571878 l -2.57968,0.0077 -2.57969,0.0077 -1.71979,2.50303 -1.71979,2.50303 -0.33073,0.0026 z m -8.70367,-142.637898 -1.68123,0.03646 v -3.407088 -3.407087 l 0.54837,-0.69714 0.54837,-0.697138 h 0.58934 0.58934 l 0.35631,0.330728 0.35632,0.330729 -0.18672,-0.330729 -0.18673,-0.330728 0.21406,0.0041 0.21405,0.0041 0.34164,0.216748 0.34165,0.216749 -0.18177,3.846972 -0.18177,3.846971 -1.68123,0.03645 z m 15.75778,-2.13e-4 -1.87558,-0.02855 0.26876,-0.268754 0.26875,-0.268753 -0.21003,-0.561714 -0.21004,-0.56172 -0.19211,-3.011895 -0.19211,-3.011896 0.35532,-0.225198 0.35532,-0.225198 1.07836,-0.0041 1.07837,-0.0041 0.57528,0.612365 0.57528,0.612365 v 3.487802 3.4878 l -1.87557,-0.02855 z"
         id="path881-8" />
      <path
         style="fill:#585858;stroke-width:0.264583"
         d="m 322.29678,-63.604772 h -2.11163 v -1.190625 -1.190625 h 0.6306 0.6306 l 0.15954,-0.595312 0.15953,-0.595314 0.004,-1.107255 0.004,-1.107253 -0.25804,-0.678684 -0.25803,-0.678682 0.85335,-0.0029 0.85334,-0.0029 0.92604,-0.153791 0.92605,-0.153792 -0.0691,3.133267 -0.0691,3.133265 -0.13436,0.595312 -0.13436,0.595313 h -2.11163 z"
         id="path879-6"
         sodipodi:nodetypes="cccccccccccccccccccccc" />
      <path
         style="fill:#282828;stroke-width:0.264583"
         d="m 310.1515,-65.986022 h -0.50865 l -0.31507,-0.954683 -0.31507,-0.95468 0.15196,-0.831257 0.15197,-0.831255 0.17345,-0.595313 0.17344,-0.595312 h -1.13329 -1.13328 l 0.1752,-0.175208 0.17521,-0.175207 0.92722,0.03486 0.92723,0.03486 v -4.092985 -4.092984 h -1.32292 -1.32292 v -1.455209 -1.455209 h 1.85209 1.85208 v 8.069793 8.06979 z m 10.66425,0 h -0.6306 v -8.069792 -8.069792 h 1.85208 1.85209 v 1.455208 1.455209 h -1.32292 -1.32292 v 3.307292 3.307291 h 0.23373 0.23372 l 0.13855,0.529791 0.13855,0.529788 -0.43842,0.256301 -0.43842,0.256296 1.12518,-0.03574 1.12517,-0.03574 0.1757,0.175691 0.17569,0.175694 h -1.22818 -1.22816 l 0.25803,0.678683 0.25803,0.678683 -0.004,1.107254 -0.004,1.107255 -0.15954,0.595313 -0.15954,0.595312 h -0.63059 z"
         id="path875-7"
         sodipodi:nodetypes="ccccccccccccccccccccccccccccccccccccccccccccccccccccccccc" />
    </g>
    <g
       id="g2130"
       transform="matrix(0.50404472,0,0,0.50404472,-147.1832,-14.002226)">
      <path
         style="fill:#b5b6b5;stroke-width:0.264583"
         d="m 484.35832,52.972065 h -0.47967 l -0.71096,-0.74208 -0.71096,-0.74208 v -3.22667 -3.226667 h 1.19063 1.19062 v 3.968747 3.96875 z m 18.33903,0 h -10.18646 v -3.96875 -3.968747 h 1.83157 1.83156 l 0.29292,0.88755 0.29292,0.88754 0.92504,1.080707 0.92504,1.0807 1.44445,0.7067 1.44444,0.70671 1.92218,-0.10631 1.92218,-0.10631 0.97352,-0.47327 0.97352,-0.47327 0.98067,-0.95241 0.98066,-0.952407 0.53212,-1.20294 0.53212,-1.20293 -0.004,-1.72596 -0.004,-1.72597 -0.40653,-0.96297 -0.40652,-0.96297 -1.0179,-1.12907 -1.0179,-1.12907 -1.32291,-0.617347 -1.32292,-0.61736 -1.45521,-0.001 -1.45521,-10e-4 -0.97985,0.27214 -0.97986,0.27214 -1.28158,1.013017 -1.28157,1.01304 -0.6453,1.35918 -0.6453,1.3592 h -1.92192 -1.92191 l -0.0157,-1.12448 -0.0157,-1.12448 0.005,-6.217707 0.005,-6.21771 0.0105,-0.859897 0.0106,-0.859998 h 10.31875 10.31875 v 14.022812 14.022917 z m 25.87967,0 h -1.14113 l -0.004,-0.52916 -0.004,-0.52917 v -7.408337 -7.40833 l 0.004,-6.085417 0.004,-6.08541 h 1.11 1.11001 l 0.74208,0.710957 0.74208,0.710958 v 12.569872 12.569877 l -0.71096,0.74208 -0.71096,0.74208 z m -44.86352,-11.672967 -1.25677,0.0313 v -7.491117 -7.491122 l 0.74016,-0.709115 0.74016,-0.709114 1.97182,0.228413 1.97183,0.228409 -1.38907,0.03433 -1.38906,0.03433 v 0.37747 0.377475 l 0.46302,0.121 0.46302,0.121004 -0.46302,0.03071 -0.46302,0.03071 v 0.51395 0.51395 l 1.12448,0.10128 1.12448,0.10129 -1.09329,0.0462 -1.09329,0.0463 -0.0144,1.04452 -0.0144,1.04452 1.24,0.0984 1.23999,0.0984 -1.25677,0.0477 -1.25676,0.0477 v 1.04077 1.04075 l 0.7276,0.11022 0.72761,0.11023 -0.72761,0.0396 -0.7276,0.0396 v 0.51467 0.51468 l 1.25677,0.0991 1.25677,0.0991 -1.25677,0.0477 -1.25677,0.0477 v 0.37482 0.37483 l 0.33073,0.13345 0.33073,0.13345 -0.33073,0.0209 -0.33073,0.0209 v 0.51396 0.51394 l 1.12448,0.10128 1.12448,0.10129 -1.09329,0.0462 -1.09329,0.0463 -0.0144,1.043937 -0.0144,1.04393 1.1077,0.10047 1.1077,0.10046 -1.12449,0.0462 -1.12446,0.0463 v 1.05833 1.05833 l 0.72761,0.0313 0.72761,0.0313 -0.79376,0.20198 -0.79375,0.20197 z m 18.71927,-21.39994 h -9.12813 v -1.190625 -1.190629 h 5.82084 5.82083 V 15.665822 13.81374 h -5.68854 -5.68854 v -1.190624 -1.190625 h 5.95312 5.95313 V 9.7126997 7.9929027 h -5.95313 -5.95312 v -1.322915 -1.322914 h 6.21771 6.2177 v -1.719792 -1.719791 h -6.2177 -6.21771 v -1.19063001 -1.190624 h 6.35 6.35 v -1.85208229 -1.852082 h -6.35 -6.35 v -1.190624 -1.190624 h 6.61458 6.61458 v -1.852087 -1.8520824 h -6.61458 -6.61458 v -1.190624 -1.190625 h 6.87916 6.87917 v -1.852087 -1.852081 h -6.87917 -6.87916 v -1.190625 -1.190624 h 7.01146 7.01145 v -1.852082 -1.852087 h -7.01145 -7.01146 v -1.190624 -1.190625 h 7.27604 7.27604 v -1.852081 -1.852087 h -7.27604 -7.27604 v -1.190625 -1.190624 h 7.54062 7.54063 v -1.852082 -1.852082 h -7.54063 -7.54062 v -1.190624 -1.19063 h 7.67291 7.67292 v -1.719791 -1.719792 h -7.67292 -7.67291 v -1.322915 -1.322914 h 7.9375 7.9375 v -1.719792 -1.719796 h -4.36563 -4.36562 v -1.190625 -1.190624 h 4.36562 4.36563 v -1.852082 -1.852082 h -4.36563 -4.36562 v -3.704167 -3.704168 h 2.38125 2.38125 v -7.143747 -7.14375 h -2.38125 -2.38125 v -4.497917 -4.497918 l 4.96093,-1.95e-4 4.96094,-1.99e-4 -0.0835,7.886593 -0.0835,7.886591 0.96006,-0.112083 0.96006,-0.11208 0.12931,0.493916 0.12931,0.493917 0.90862,0.595312 0.90862,0.595311 h 0.26829 0.2683 v 24.174212 24.17422 l -1.05834,0.70037 -1.05833,0.700375 v 5.155621 5.1556154 h -0.66146 -0.66146 V 7.1991547 19.899158 Z m 35.32187,0 h -9.26041 V 7.1991547 -5.5008476 h -0.52917 -0.52917 v -5.1350804 -5.135076 l -1.19015,-0.751901 -1.19015,-0.751901 -0.0363,-23.547912 -0.0363,-23.547917 -0.0468,-1.124479 -0.0468,-1.124481 h 0.71177 0.71177 l 0.95709,-0.399899 0.95709,-0.399894 0.13474,0.0078 0.13475,0.0078 0.66027,-0.165719 0.66026,-0.165717 v -7.776527 -7.776524 h 4.7625 4.7625 v 4.497916 4.497917 h -2.38125 -2.38125 v 7.143751 7.14375 h 2.38125 2.38125 v 3.704166 3.704167 h -4.36562 -4.36563 v 1.852081 1.852082 h 4.36563 4.36562 v 1.190625 1.190629 h -4.36562 -4.36563 v 1.719792 1.719791 h 8.06979 8.0698 v 1.322915 1.322915 h -7.80521 -7.80521 v 1.719791 1.719796 h 7.80521 7.80521 v 1.190625 1.190624 h -7.54065 -7.54062 v 1.852082 1.852082 h 7.54062 7.54064 v 1.190624 1.19063 h -7.27606 -7.27604 v 1.852082 1.852082 h 7.27604 7.27606 v 1.190624 1.190624 h -7.14376 -7.14375 v 1.852019 1.852082 h 7.14375 7.14376 v 1.190624 1.190625 h -6.87917 -6.87918 v 1.852081 1.852087 h 6.87918 6.87917 v 1.190625 1.190624 h -6.6146 -6.61458 v 1.8520824 1.852087 h 6.61458 6.6146 v 1.190624 1.190624 h -6.48231 -6.48229 v 1.852082 1.85208229 h 6.48229 6.48231 v 1.190624 1.19063001 h -6.21772 -6.21771 v 1.719791 1.719792 h 6.21771 6.21772 v 1.322914 1.322915 h -5.95314 -5.95312 v 1.719797 1.7197913 h 5.95312 5.95314 v 1.190625 1.190624 h -5.82085 -5.82083 v 1.852082 1.852082 h 5.95312 5.95313 v 1.190629 1.190625 z m -20.04218,-25.3999896 -0.19844,1.6e-5 0.0663,-31.5515774 0.0663,-31.551575 0.0679,-17.727085 0.0679,-17.727087 0.0642,49.27865 0.0643,49.2786424 z"
         id="path889-6-6"
         sodipodi:nodetypes="ccccccccccccccccccccccccccccccccccccccccccccccccccccccccccccccccccccccccccccccccccccccccccccccccccccccccccccccccccccccccccccccccccccccccccccccccccccccccccccccccccccccccccccccccccccccccccccccccccccccccccccccccccccccccccccccccccccccccccccccccccccccccccccccccccccccccccccccccccccccccccccccccccccccccccccccccccccccccccccccccccccccccccccccccccccccccccccccccccccccccccccccccccccccccccccccccccccccccccccccccccccccccccccccc" />
      <path
         style="fill:#accaa9;stroke-width:0.264583"
         d="m 516.54641,-5.5524836 -0.96761,0.08065 -0.15352,-0.248419 -0.15353,-0.248413 -0.007,-29.4655754 -0.007,-29.465565 0.003,-19.513022 0.003,-19.513022 h 1.19133 1.19133 l -0.0672,49.146356 -0.0668,49.1463574 z m 7.22941,0.05165 h -1.01423 l -0.17639,-0.176394 -0.17639,-0.176384 V -54.889737 -103.92585 h 1.19063 1.19062 v 49.212503 49.2125034 z"
         id="path887-3-4" />
      <path
         style="fill:#85817e;stroke-width:0.264583"
         d="m 485.76403,52.972065 h -0.92605 v -3.96875 -3.968747 h 1.01927 1.01927 l -0.0763,3.505727 -0.0763,3.50573 -0.017,0.46302 -0.0169,0.46302 z m 5.42395,0 h -1.32292 l -0.0226,-0.19844 -0.0226,-0.19843 -0.048,-3.77032 -0.048,-3.770307 h 1.39348 1.39349 v 3.968747 3.96875 h -1.32292 z m 36.11377,-15.345827 h -0.0992 l -0.16352,-0.26458 -0.16352,-0.26459 h -2.08543 -2.08545 l -0.14726,-0.238267 -0.14726,-0.23827 -0.008,-20.015737 -0.008,-20.0157386 0.18053,-0.292082 0.18052,-0.292081 -0.30548,0.188787 -0.30545,0.188788 0.0654,-50.2202994 0.0653,-50.220308 0.0675,49.27865 0.0675,49.2786424 h 1.27253 1.27253 l -0.0351,-29.4348934 -0.0351,-29.434894 0.0863,23.547917 0.0863,23.547912 1.18906,0.751901 1.18906,0.751901 v 5.135076 5.1350804 h 0.52917 0.52917 V 7.1991547 19.899158 h -2.51351 -2.51355 v 2.513539 2.513544 h 1.9924 1.9924 l -0.0255,6.35 -0.0255,6.349997 h -0.0992 z m -9.87176,-0.52917 -0.18055,0.1323 -1.5875,-0.0681 -1.5875,-0.0681 -0.59532,-0.135377 -0.59531,-0.13537 v -5.9481 -5.94808 h 1.98438 1.98437 v -2.513544 -2.513539 h -2.64583 -2.64584 V 7.1991547 -5.5008476 h 0.66146 0.66146 v -5.1556154 -5.155621 l 1.05693,-0.699446 1.05692,-0.699435 0.069,-23.712128 0.069,-23.712125 0.0647,29.68386 0.0647,29.6838694 0.30546,0.188782 0.30547,0.188788 -0.18879,-0.305462 -0.18879,-0.305467 h 1.20624 1.20624 v 0.785449 0.785444 l -0.46302,-0.159581 -0.46302,-0.159587 0.5038,0.392594 0.5038,0.392593 -0.19096,20.2143586 -0.19094,20.214358 z m -2.29722,-102.129162 h -0.13229 v -0.264584 -0.264583 h -0.2683 -0.26829 l -0.90862,-0.595311 -0.90862,-0.595312 -0.12123,-0.463022 -0.12124,-0.46302 h -0.95081 -0.95081 v -3.659883 -3.659878 l 1.38906,0.195421 1.38907,0.195421 0.42282,0.170049 0.42282,0.17005 -0.27302,1.022892 -0.27303,1.02289 0.32385,1.080894 0.32384,1.080893 h 0.51854 0.51855 v 2.513543 2.51354 z m 10.41873,-1.587501 h -0.76144 v -0.529164 -0.529167 h 2.08836 2.08836 l 0.1606,-0.418515 0.1606,-0.418513 v -3.137749 -3.137746 l 0.26458,-0.163519 0.26458,-0.16352 v 3.691094 3.691101 l -0.66026,0.165715 -0.66027,0.165719 -0.19963,0.01934 -0.19963,0.01934 -0.89221,0.37279 -0.8922,0.372785 h -0.76144 z"
         id="path885-1-3"
         sodipodi:nodetypes="ccccccccccccccccccccccccccccccccccccccccccccccccccccccccccccccccccccccccccccccccccccccccccccccccccccccccccccccccccccccccccccccccccccccccccccccccccccccccccc" />
      <path
         style="fill:#f9f9f9;fill-opacity:1;stroke-width:0.264583"
         d="m 466.09567,72.45873 c 8.82393,1.11949 52.13068,-4.525338 52.13068,-4.525338 l 1.53635,-0.40923 2.8e-4,-0.73932 v -1.31256 l -0.39688,-0.32938 -0.39687,-0.32938 v -0.68527 -0.68527 l -0.6621,-0.53911 -0.66211,-0.5391 0.0369,-12.567707 0.0369,-12.567697 0.11889,-70.577608 0.1189,-70.5776 h 2.0529 2.05291 l 0.15708,83.277597 0.15708,83.277595 -0.51305,0.36301 -0.51306,0.363 v 0.86546 0.86546 l -0.3818,0.14652 -0.38181,0.1465 -0.0812,1.25018 0.0511,0.89466 -0.65941,0.6547 -5.86435,1.020108 -18.36049,2.366711 -27.89522,2.659709 -3.16645,0.6191 -17.00291,0.0592 c -1.8668,0.0065 -1.68334,-2.57338 0.0598,-3.46396 0,0 9.60403,-0.10049 18.42796,1.01899 z"
         id="path883-2-6"
         sodipodi:nodetypes="zcccccccccccccccccccccccccccccccsszz" />
      <path
         style="fill:#915e1c;stroke-width:0.264583"
         d="m 519.40802,67.524142 h -0.35495 l -1.7625,-2.50362 -1.7625,-2.50362 -2.44661,-0.0761 -2.44661,-0.0761 v -3.43959 -3.439577 l 1.78594,-0.0782 1.78594,-0.0782 v -1.83496 -1.83495 l -0.66146,-0.16602 -0.66146,-0.16601 v -6.818087 -6.81809 l 0.37527,-0.31144 0.37527,-0.31145 1.9962,0.0528 1.99619,0.0528 0.009,12.595477 0.009,12.595487 0.66209,0.53911 0.66212,0.5391 v 0.68527 0.68527 l 0.39686,0.32938 0.39688,0.32938 v 1.02593 1.02594 h -0.35496 z m 1.47944,-0.003 -0.33073,0.003 v -1.06663 -1.06664 l 0.39687,-0.15229 0.39688,-0.1523 v -0.88843 -0.88841 l 0.52916,-0.28321 0.52917,-0.2832 V 49.920055 37.097068 h 2.19604 2.19604 l 0.3175,0.3175 0.3175,0.3175 v 6.66353 6.663527 l -0.66145,0.4334 -0.66146,0.43341 v 1.71369 1.7137 h 1.85208 1.85208 v 3.571867 3.57187 l -2.57968,0.008 -2.57969,0.008 -1.71979,2.50303 -1.71979,2.50303 -0.33073,0.003 z m -8.70367,-142.637889 -1.68123,0.03646 v -3.407088 -3.407087 l 0.54837,-0.69714 0.54837,-0.697138 h 0.58934 0.58934 l 0.35631,0.330728 0.35632,0.330729 -0.18672,-0.330729 -0.18673,-0.330728 0.21406,0.0041 0.21405,0.0041 0.34164,0.216748 0.34165,0.216749 -0.18177,3.846972 -0.18177,3.846971 -1.68123,0.03645 z m 15.75778,-2.13e-4 -1.87558,-0.02855 0.26876,-0.268754 0.26875,-0.268753 -0.21003,-0.561714 -0.21004,-0.56172 -0.19211,-3.011895 -0.19211,-3.011897 0.35532,-0.225197 0.35532,-0.225198 1.07836,-0.0041 1.07837,-0.0041 0.57528,0.612365 0.57528,0.612365 v 3.487802 3.4878 l -1.87557,-0.02855 z"
         id="path881-8-8" />
      <path
         style="fill:#585858;stroke-width:0.264583"
         d="m 526.90169,-67.677926 h -2.11163 v -1.190625 -1.190626 h 0.6306 0.6306 l 0.15954,-0.595311 0.15953,-0.595315 0.004,-1.107255 0.004,-1.107252 -0.25804,-0.678685 -0.25803,-0.678681 0.85335,-0.0029 0.85334,-0.0029 0.92604,-0.153791 0.92605,-0.153792 -0.0691,3.133267 -0.0691,3.133265 -0.13436,0.595312 -0.13436,0.595313 h -2.11163 z"
         id="path879-6-7"
         sodipodi:nodetypes="cccccccccccccccccccccc" />
      <path
         style="fill:#282828;stroke-width:0.264583"
         d="m 514.75641,-70.059177 h -0.50865 l -0.31507,-0.954682 -0.31507,-0.95468 0.15196,-0.831257 0.15197,-0.831255 0.17345,-0.595314 0.17344,-0.595311 h -1.13329 -1.13328 l 0.1752,-0.175209 0.17521,-0.175207 0.92722,0.03486 0.92723,0.03486 v -4.092984 -4.092984 h -1.32292 -1.32292 v -1.45521 -1.455209 h 1.85209 1.85208 v 8.069794 8.069789 z m 10.66425,0 h -0.6306 v -8.069792 -8.069792 h 1.85208 1.85209 v 1.455208 1.455209 h -1.32292 -1.32292 v 3.307293 3.30729 h 0.23373 0.23372 l 0.13855,0.529791 0.13855,0.529788 -0.43842,0.256302 -0.43842,0.256296 1.12518,-0.03574 1.12517,-0.03574 0.1757,0.175691 0.17569,0.175694 h -1.22818 -1.22816 l 0.25803,0.678683 0.25803,0.678683 -0.004,1.107254 -0.004,1.107255 -0.15954,0.595313 -0.15954,0.595312 h -0.63059 z"
         id="path875-7-4"
         sodipodi:nodetypes="ccccccccccccccccccccccccccccccccccccccccccccccccccccccccc" />
    </g>
  </g>
</svg>
